<svg width="25" height="24" viewBox="0 0 25 24" fill="none" xmlns="http://www.w3.org/2000/svg">
<circle cx="12.167" cy="9" r="4" fill="#0366C8"/>
<circle cx="17.167" cy="9" r="3" fill="#0366C8"/>
<circle cx="7.16699" cy="9" r="3" fill="#0366C8"/>
<path fill-rule="evenodd" clip-rule="evenodd" d="M17.7353 18H20.0619C20.6535 18 21.1072 17.4901 20.9635 16.9162C20.5952 15.4458 19.6148 13 17.1669 13C16.2808 13 15.587 13.3205 15.0449 13.7991C16.5527 14.7773 17.3322 16.4902 17.7353 18Z" fill="#0366C8"/>
<path fill-rule="evenodd" clip-rule="evenodd" d="M9.28909 13.7991C8.747 13.3205 8.0532 13 7.16712 13C4.7192 13 3.73878 15.4458 3.37054 16.9162C3.22682 17.4901 3.68047 18 4.27209 18H6.59867C7.00175 16.4902 7.78134 14.7773 9.28909 13.7991Z" fill="#0366C8"/>
<path d="M12.167 14C15.8756 14 16.8335 17.301 17.0809 19.0061C17.1602 19.5526 16.7193 20 16.167 20H8.16699C7.61471 20 7.17383 19.5526 7.25313 19.0061C7.50051 17.301 8.45834 14 12.167 14Z" fill="#0366C8"/>
</svg>
