<svg width="24" height="24" viewBox="0 0 24 24" fill="none" xmlns="http://www.w3.org/2000/svg">
<circle cx="11.7686" cy="8" r="3.25" stroke="#7C8597" stroke-width="1.5" stroke-linecap="round"/>
<path d="M14.82 7.875C15.1184 7.35821 15.6098 6.98111 16.1862 6.82667C16.7626 6.67222 17.3768 6.75307 17.8936 7.05144C18.4103 7.34981 18.7874 7.84125 18.9419 8.41766C19.0963 8.99406 19.0155 9.60821 18.7171 10.125C18.4187 10.6418 17.9273 11.0189 17.3509 11.1733C16.7745 11.3278 16.1603 11.2469 15.6436 10.9486C15.1268 10.6502 14.7497 10.1587 14.5952 9.58234C14.4408 9.00594 14.5216 8.39179 14.82 7.875L14.82 7.875Z" stroke="#7C8597" stroke-width="1.5"/>
<path d="M4.82 7.875C5.11837 7.35821 5.60981 6.98111 6.18621 6.82667C6.76262 6.67222 7.37677 6.75307 7.89355 7.05144C8.41034 7.34981 8.78744 7.84125 8.94189 8.41766C9.09633 8.99406 9.01548 9.60821 8.71711 10.125C8.41874 10.6418 7.9273 11.0189 7.3509 11.1733C6.77449 11.3278 6.16034 11.2469 5.64355 10.9486C5.12677 10.6502 4.74967 10.1587 4.59522 9.58234C4.44077 9.00594 4.52163 8.39179 4.82 7.875L4.82 7.875Z" stroke="#7C8597" stroke-width="1.5"/>
<path d="M16.6506 18L15.9154 18.1481L16.0366 18.75H16.6506V18ZM20.4892 16.9042L21.196 16.6534L21.196 16.6534L20.4892 16.9042ZM14.5498 14.7105L14.0962 14.1133L13.2287 14.7721L14.1537 15.3474L14.5498 14.7105ZM19.6362 17.25H16.6506V18.75H19.6362V17.25ZM19.7823 17.1549C19.7864 17.1663 19.7873 17.1732 19.7875 17.1759C19.7877 17.1787 19.7875 17.1799 19.7875 17.1802C19.7874 17.1805 19.7872 17.1817 19.7861 17.1839C19.7851 17.1861 19.783 17.19 19.779 17.1949C19.7624 17.2156 19.7165 17.25 19.6362 17.25V18.75C20.6461 18.75 21.6053 17.8073 21.196 16.6534L19.7823 17.1549ZM16.769 14.75C18.5739 14.75 19.396 16.0658 19.7823 17.1549L21.196 16.6534C20.7423 15.374 19.5541 13.25 16.769 13.25V14.75ZM15.0034 15.3078C15.4307 14.9833 15.9955 14.75 16.769 14.75V13.25C15.6626 13.25 14.7802 13.5937 14.0962 14.1133L15.0034 15.3078ZM14.1537 15.3474C15.279 16.0473 15.7357 17.2559 15.9154 18.1481L17.3858 17.8519C17.1734 16.7969 16.5882 15.0951 14.9459 14.0737L14.1537 15.3474Z" fill="#7C8597"/>
<path d="M8.98779 14.7105L9.38389 15.3474L10.3089 14.7721L9.44143 14.1133L8.98779 14.7105ZM3.04842 16.9041L3.75527 17.1549L3.75527 17.1549L3.04842 16.9041ZM6.88697 18V18.75H7.50098L7.62221 18.1481L6.88697 18ZM6.76863 14.75C7.54213 14.75 8.1069 14.9833 8.53415 15.3078L9.44143 14.1133C8.75742 13.5937 7.87503 13.25 6.76863 13.25V14.75ZM3.75527 17.1549C4.14157 16.0658 4.96368 14.75 6.76863 14.75V13.25C3.98349 13.25 2.79537 15.374 2.34156 16.6534L3.75527 17.1549ZM3.9014 17.25C3.82113 17.25 3.77522 17.2156 3.75859 17.1949C3.75463 17.19 3.75252 17.1861 3.75146 17.1839C3.75045 17.1817 3.75021 17.1805 3.75014 17.1802C3.7501 17.1799 3.74987 17.1787 3.7501 17.1759C3.75033 17.1732 3.75122 17.1663 3.75527 17.1549L2.34156 16.6534C1.93227 17.8073 2.89151 18.75 3.9014 18.75V17.25ZM6.88697 17.25H3.9014V18.75H6.88697V17.25ZM7.62221 18.1481C7.80189 17.2559 8.25856 16.0473 9.38389 15.3474L8.5917 14.0736C6.94938 15.0951 6.36422 16.7969 6.15173 17.8519L7.62221 18.1481Z" fill="#7C8597"/>
<path d="M11.7686 14C15.3401 14 16.3605 16.5512 16.652 18.0089C16.7603 18.5504 16.3208 19 15.7686 19H7.76855C7.21627 19 6.77685 18.5504 6.88515 18.0089C7.17666 16.5512 8.19702 14 11.7686 14Z" stroke="#7C8597" stroke-width="1.5" stroke-linecap="round"/>
</svg>
