<svg width="25" height="24" viewBox="0 0 25 24" fill="none" xmlns="http://www.w3.org/2000/svg">
<path d="M14.833 21V16C14.833 15.4477 14.3853 15 13.833 15H10.833C10.2807 15 9.83301 15.4477 9.83301 16V21" stroke="#7C8597" stroke-width="1.5" stroke-linecap="round" stroke-linejoin="round"/>
<path d="M5.33301 11V17C5.33301 18.8856 5.33301 19.8284 5.91879 20.4142C6.50458 21 7.44739 21 9.33301 21H15.333C17.2186 21 18.1614 21 18.7472 20.4142C19.333 19.8284 19.333 18.8856 19.333 17V11" stroke="#7C8597" stroke-width="1.5"/>
<path d="M4.95428 4.51493C5.13617 3.78737 5.22711 3.42359 5.49837 3.21179C5.76963 3 6.14461 3 6.89456 3H17.7715C18.5214 3 18.8964 3 19.1676 3.21179C19.4389 3.42359 19.5299 3.78737 19.7117 4.51493L20.9154 9.32938C21.0122 9.71675 21.0606 9.91044 21.0499 10.0678C21.0222 10.4757 20.749 10.8257 20.3599 10.9515C20.2099 11 20.0056 11 19.5971 11V11C19.064 11 18.7974 11 18.5735 10.9478C17.9463 10.8017 17.4278 10.3625 17.1805 9.76781C17.0923 9.55555 17.0494 9.29856 16.9638 8.78457V8.78457C16.9398 8.64076 16.9278 8.56886 16.9142 8.54994C16.8743 8.49439 16.7917 8.49439 16.7518 8.54994C16.7382 8.56886 16.7262 8.64076 16.7022 8.78457L16.6207 9.27381C16.6121 9.32568 16.6077 9.35161 16.6034 9.37433C16.4269 10.3005 15.6276 10.9777 14.685 10.9995C14.6619 11 14.6356 11 14.583 11V11C14.5304 11 14.5041 11 14.481 10.9995C13.5384 10.9777 12.7391 10.3005 12.5626 9.37433C12.5583 9.35161 12.554 9.32568 12.5453 9.27381L12.4638 8.78457C12.4398 8.64076 12.4278 8.56886 12.4142 8.54994C12.3743 8.49439 12.2917 8.49439 12.2518 8.54994C12.2382 8.56886 12.2262 8.64076 12.2022 8.78457L12.1207 9.27381C12.1121 9.32568 12.1077 9.35161 12.1034 9.37433C11.9269 10.3005 11.1276 10.9777 10.185 10.9995C10.1619 11 10.1356 11 10.083 11V11C10.0304 11 10.0041 11 9.98102 10.9995C9.03842 10.9777 8.23907 10.3005 8.0626 9.37433C8.05828 9.35161 8.05395 9.32568 8.04531 9.27381L7.96377 8.78457C7.9398 8.64076 7.92782 8.56886 7.91423 8.54994C7.87433 8.49439 7.79169 8.49439 7.75179 8.54994C7.7382 8.56886 7.72621 8.64076 7.70225 8.78457V8.78457C7.61658 9.29856 7.57375 9.55555 7.4855 9.76781C7.23825 10.3625 6.71976 10.8017 6.09252 10.9478C5.86863 11 5.60206 11 5.06892 11V11C4.66037 11 4.4561 11 4.30607 10.9515C3.91704 10.8257 3.64379 10.4757 3.61608 10.0678C3.6054 9.91044 3.65382 9.71675 3.75066 9.32938L4.95428 4.51493Z" stroke="#7C8597" stroke-width="1.5"/>
</svg>
