<svg width="25" height="24" viewBox="0 0 25 24" fill="none" xmlns="http://www.w3.org/2000/svg">
<path fill-rule="evenodd" clip-rule="evenodd" d="M19.5 16.5005V20.0005C19.5 20.9433 19.5 21.4147 19.2071 21.7076C18.9142 22.0005 18.4428 22.0005 17.5 22.0005H14.5V18.0005C14.5 17.4482 14.0523 17.0005 13.5 17.0005H11.5C10.9477 17.0005 10.5 17.4482 10.5 18.0005V22.0005H7.5C6.55719 22.0005 6.08579 22.0005 5.79289 21.7076C5.5 21.4147 5.5 20.9433 5.5 20.0005V16.5005C5.5 14.6149 5.5 13.6721 6.08579 13.0863C6.67157 12.5005 7.61438 12.5005 9.5 12.5005H15.5C17.3856 12.5005 18.3284 12.5005 18.9142 13.0863C19.5 13.6721 19.5 14.6149 19.5 16.5005Z" fill="#0366C8"/>
<path d="M5.12127 4.51493C5.30316 3.78737 5.3941 3.42359 5.66536 3.21179C5.93663 3 6.3116 3 7.06155 3H17.9384C18.6884 3 19.0634 3 19.3346 3.21179C19.6059 3.42359 19.6968 3.78737 19.8787 4.51493L21.0823 9.32938C21.1792 9.71675 21.2276 9.91044 21.2169 10.0678C21.1892 10.4757 20.916 10.8257 20.5269 10.9515C20.3769 11 20.1726 11 19.7641 11V11C19.2309 11 18.9644 11 18.7405 10.9478C18.1133 10.8017 17.5948 10.3625 17.3475 9.76781C17.2593 9.55555 17.2164 9.29856 17.1308 8.78457V8.78457C17.1068 8.64076 17.0948 8.56886 17.0812 8.54994C17.0413 8.49439 16.9587 8.49439 16.9188 8.54994C16.9052 8.56886 16.8932 8.64076 16.8692 8.78457L16.7877 9.27381C16.7791 9.32568 16.7747 9.35161 16.7704 9.37433C16.5939 10.3005 15.7946 10.9777 14.852 10.9995C14.8289 11 14.8026 11 14.75 11V11C14.6974 11 14.6711 11 14.648 10.9995C13.7054 10.9777 12.9061 10.3005 12.7296 9.37433C12.7253 9.35161 12.7209 9.32568 12.7123 9.27381L12.6308 8.78457C12.6068 8.64076 12.5948 8.56886 12.5812 8.54994C12.5413 8.49439 12.4587 8.49439 12.4188 8.54994C12.4052 8.56886 12.3932 8.64076 12.3692 8.78457L12.2877 9.27381C12.2791 9.32568 12.2747 9.35161 12.2704 9.37433C12.0939 10.3005 11.2946 10.9777 10.352 10.9995C10.3289 11 10.3026 11 10.25 11V11C10.1974 11 10.1711 11 10.148 10.9995C9.20541 10.9777 8.40606 10.3005 8.2296 9.37433C8.22527 9.35161 8.22095 9.32568 8.2123 9.27381L8.13076 8.78457C8.10679 8.64076 8.09481 8.56886 8.08122 8.54994C8.04132 8.49439 7.95868 8.49439 7.91878 8.54994C7.90519 8.56886 7.89321 8.64076 7.86924 8.78457V8.78457C7.78357 9.29856 7.74074 9.55555 7.65249 9.76781C7.40524 10.3625 6.88675 10.8017 6.25951 10.9478C6.03563 11 5.76905 11 5.23591 11V11C4.82737 11 4.62309 11 4.47306 10.9515C4.08403 10.8257 3.81078 10.4757 3.78307 10.0678C3.77239 9.91044 3.82081 9.71675 3.91765 9.32938L5.12127 4.51493Z" fill="#0366C8"/>
</svg>
