<svg width="25" height="24" viewBox="0 0 25 24" fill="none" xmlns="http://www.w3.org/2000/svg">
<path d="M5.33301 17H9.33301C10.9899 17 12.333 18.3431 12.333 20V10C12.333 7.17157 12.333 5.75736 11.4543 4.87868C10.5756 4 9.16143 4 6.33301 4H5.33301C4.3902 4 3.91879 4 3.6259 4.29289C3.33301 4.58579 3.33301 5.05719 3.33301 6V15C3.33301 15.9428 3.33301 16.4142 3.6259 16.7071C3.91879 17 4.3902 17 5.33301 17Z" stroke="#7C8597" stroke-width="1.5"/>
<path d="M19.333 17H15.333C13.6762 17 12.333 18.3431 12.333 20V10C12.333 7.17157 12.333 5.75736 13.2117 4.87868C14.0904 4 15.5046 4 18.333 4H19.333C20.2758 4 20.7472 4 21.0401 4.29289C21.333 4.58579 21.333 5.05719 21.333 6V15C21.333 15.9428 21.333 16.4142 21.0401 16.7071C20.7472 17 20.2758 17 19.333 17Z" stroke="#7C8597" stroke-width="1.5"/>
</svg>
