<svg width="25" height="24" viewBox="0 0 25 24" fill="none" xmlns="http://www.w3.org/2000/svg">
<path d="M5.5 17H10.5C11.6046 17 12.5 17.8954 12.5 19V10C12.5 7.17157 12.5 5.75736 11.6213 4.87868C10.7426 4 9.32843 4 6.5 4H5.5C4.55719 4 4.08579 4 3.79289 4.29289C3.5 4.58579 3.5 5.05719 3.5 6V15C3.5 15.9428 3.5 16.4142 3.79289 16.7071C4.08579 17 4.55719 17 5.5 17Z" fill="#0366C8"/>
<path d="M19.5 17H14.5C13.3954 17 12.5 17.8954 12.5 19V10C12.5 7.17157 12.5 5.75736 13.3787 4.87868C14.2574 4 15.6716 4 18.5 4H19.5C20.4428 4 20.9142 4 21.2071 4.29289C21.5 4.58579 21.5 5.05719 21.5 6V15C21.5 15.9428 21.5 16.4142 21.2071 16.7071C20.9142 17 20.4428 17 19.5 17Z" fill="#0366C8"/>
</svg>
