<svg width="25" height="24" viewBox="0 0 25 24" fill="none" xmlns="http://www.w3.org/2000/svg">
<path fill-rule="evenodd" clip-rule="evenodd" d="M19.167 3.86171V20.1385C19.167 20.5224 18.7523 20.7631 18.4189 20.5727L16.1631 19.2836C15.8557 19.108 15.4783 19.108 15.1709 19.2836L12.9608 20.5465C12.4689 20.8276 11.8651 20.8276 11.3732 20.5465L9.16313 19.2836C8.8557 19.108 8.47829 19.108 8.17085 19.2836L5.91506 20.5727C5.58173 20.7631 5.16699 20.5224 5.16699 20.1385V3.86171C5.16699 3.4778 5.58173 3.23711 5.91506 3.42759L8.17085 4.71661C8.47829 4.89229 8.8557 4.89229 9.16313 4.71661L11.3732 3.45373C11.8651 3.17265 12.4689 3.17265 12.9608 3.45373L15.1709 4.71661C15.4783 4.89229 15.8557 4.89229 16.1631 4.71661L18.4189 3.42759C18.7523 3.23711 19.167 3.4778 19.167 3.86171ZM9.66699 9.00013C9.39085 9.00013 9.16699 9.22399 9.16699 9.50013C9.16699 9.77628 9.39085 10.0001 9.66699 10.0001H14.667C14.9431 10.0001 15.167 9.77628 15.167 9.50013C15.167 9.22399 14.9431 9.00013 14.667 9.00013H9.66699ZM9.66699 11.5001C9.39085 11.5001 9.16699 11.724 9.16699 12.0001C9.16699 12.2763 9.39085 12.5001 9.66699 12.5001H14.667C14.9431 12.5001 15.167 12.2763 15.167 12.0001C15.167 11.724 14.9431 11.5001 14.667 11.5001H9.66699ZM9.66699 14.0001C9.39085 14.0001 9.16699 14.224 9.16699 14.5001C9.16699 14.7763 9.39085 15.0001 9.66699 15.0001H14.667C14.9431 15.0001 15.167 14.7763 15.167 14.5001C15.167 14.224 14.9431 14.0001 14.667 14.0001H9.66699Z" fill="#0366C8"/>
</svg>
