<svg width="25" height="24" viewBox="0 0 25 24" fill="none" xmlns="http://www.w3.org/2000/svg">
<path d="M18.666 3.00001V3.00001C20.3229 3.00001 21.666 4.34315 21.666 6.00001L21.666 8.14286C21.666 8.47698 21.666 8.64405 21.5894 8.76602C21.5494 8.82962 21.4956 8.8834 21.432 8.92336C21.3101 9 21.143 9 20.8089 9L15.666 9M18.666 3.00001V3.00001C17.0092 3.00001 15.666 4.34315 15.666 6.00001L15.666 9M18.666 3.00001L7.66602 3.00001C5.7804 3.00001 4.83759 3.00001 4.2518 3.58579C3.66601 4.17158 3.66602 5.11439 3.66602 7.00001L3.66602 21L6.66602 20L9.66602 21L12.666 20L15.666 21L15.666 9" stroke="#7C8597" stroke-width="1.5"/>
<path d="M7.66602 7L11.666 7" stroke="#7C8597" stroke-width="1.5" stroke-linecap="round"/>
<path d="M8.66602 11H7.66602" stroke="#7C8597" stroke-width="1.5" stroke-linecap="round"/>
<path d="M7.66602 15L10.666 15" stroke="#7C8597" stroke-width="1.5" stroke-linecap="round"/>
</svg>
