<svg width="25" height="24" viewBox="0 0 25 24" fill="none" xmlns="http://www.w3.org/2000/svg">
<path fill-rule="evenodd" clip-rule="evenodd" d="M2.83301 21V7C2.83301 5.11438 2.83301 4.17157 3.41879 3.58579C4.00458 3 4.94739 3 6.83301 3H16.833C17.6647 3 18.3108 3 18.8367 3.02706C16.585 3.2741 14.833 5.18245 14.833 7.5V11.0002L14.7342 20.9671L11.833 20L8.83301 21L5.83301 20L2.83301 21ZM21.833 11L16.833 11V7.5C16.833 6.11929 17.9523 5 19.333 5C20.7137 5 21.833 6.11929 21.833 7.5V11ZM4.83301 7C4.83301 6.44772 5.28072 6 5.83301 6H11.833C12.3853 6 12.833 6.44772 12.833 7C12.833 7.55228 12.3853 8 11.833 8H5.83301C5.28072 8 4.83301 7.55228 4.83301 7ZM4.83301 11C4.83301 10.4477 5.28072 10 5.83301 10H7.83301C8.38529 10 8.83301 10.4477 8.83301 11C8.83301 11.5523 8.38529 12 7.83301 12H5.83301C5.28072 12 4.83301 11.5523 4.83301 11ZM4.83301 15C4.83301 14.4477 5.28072 14 5.83301 14H9.83301C10.3853 14 10.833 14.4477 10.833 15C10.833 15.5523 10.3853 16 9.83301 16H5.83301C5.28072 16 4.83301 15.5523 4.83301 15Z" fill="#0366C8"/>
</svg>
