<svg width="25" height="24" viewBox="0 0 25 24" fill="none" xmlns="http://www.w3.org/2000/svg">
<path fill-rule="evenodd" clip-rule="evenodd" d="M21.3763 6.7039C21.833 7.80653 21.833 9.20435 21.833 12C21.833 14.7956 21.833 16.1935 21.3763 17.2961C20.7673 18.7663 19.5993 19.9343 18.1291 20.5433C17.0265 21 15.6287 21 12.833 21H9.83301C7.00458 21 5.59037 21 4.71169 20.1213C3.83301 19.2426 3.83301 17.8284 3.83301 15V12C3.83301 9.20435 3.83301 7.80653 4.28973 6.7039C4.89869 5.23373 6.06674 4.06569 7.53691 3.45672C8.63953 3 10.0374 3 12.833 3C15.6287 3 17.0265 3 18.1291 3.45672C19.5993 4.06569 20.7673 5.23373 21.3763 6.7039ZM12.833 8.00049C13.3853 8.00049 13.833 8.4482 13.833 9.00049V11.0005H15.833C16.3853 11.0005 16.833 11.4482 16.833 12.0005C16.833 12.5528 16.3853 13.0005 15.833 13.0005H13.833V15.0005C13.833 15.5528 13.3853 16.0005 12.833 16.0005C12.2807 16.0005 11.833 15.5528 11.833 15.0005V13.0005H9.83301C9.28072 13.0005 8.83301 12.5528 8.83301 12.0005C8.83301 11.4482 9.28072 11.0005 9.83301 11.0005H11.833V9.00049C11.833 8.4482 12.2807 8.00049 12.833 8.00049Z" fill="#0366C8"/>
</svg>
