<svg width="25" height="24" viewBox="0 0 25 24" fill="none" xmlns="http://www.w3.org/2000/svg">
<path d="M20.666 12C20.666 8.22876 20.666 6.34315 19.4944 5.17157C18.3229 4 16.4373 4 12.666 4V4C8.89478 4 7.00916 4 5.83759 5.17157C4.66602 6.34315 4.66602 8.22876 4.66602 12V18C4.66602 18.9428 4.66602 19.4142 4.95891 19.7071C5.2518 20 5.72321 20 6.66602 20H12.666C16.4373 20 18.3229 20 19.4944 18.8284C20.666 17.6569 20.666 15.7712 20.666 12V12Z" stroke="#7C8597" stroke-width="1.5"/>
<path d="M9.66602 12L15.666 12" stroke="#7C8597" stroke-width="1.5" stroke-linecap="round" stroke-linejoin="round"/>
<path d="M12.666 9L12.666 15" stroke="#7C8597" stroke-width="1.5" stroke-linecap="round" stroke-linejoin="round"/>
</svg>
