<svg width="105" height="38" viewBox="0 0 105 38" fill="none" xmlns="http://www.w3.org/2000/svg">
<path d="M32.6305 6.08008H12.4307L7.99121 32.0512H21.6372C25.4229 32.0512 28.6574 29.3227 29.2953 25.5911L32.6305 6.08008Z" fill="#0366C8"/>
<path fill-rule="evenodd" clip-rule="evenodd" d="M0 21.3965H13.0966V23.1723C13.0966 28.076 17.0718 32.0513 21.9756 32.0513H8.87903C3.97528 32.0513 0 28.076 0 23.1723V21.3965Z" fill="#002855"/>
<path d="M27.724 11.4072L27.4584 12.961H13.8117L14.0773 11.4072H27.724Z" fill="white"/>
<path d="M28.2173 8.52148L27.9517 10.0753H14.3049L14.5705 8.52148H28.2173Z" fill="white"/>
<path d="M20.0896 14.2928L19.8239 15.8467H13.3184L13.584 14.2928H20.0896Z" fill="white"/>
<path d="M37.7599 31.323C36.9549 31.323 36.3511 31.098 35.9486 30.6482C35.5697 30.1746 35.4395 29.5353 35.5579 28.7303L38.7544 8.48613C38.8727 7.75213 39.145 7.20755 39.5712 6.85239C40.0211 6.47355 40.613 6.28413 41.347 6.28413H49.4092C51.256 6.28413 52.7595 6.54458 53.9197 7.06548C55.0799 7.56271 55.9323 8.26119 56.4769 9.16093C57.0215 10.037 57.2938 11.0551 57.2938 12.2153C57.2938 14.0148 56.7255 15.4946 55.589 16.6548C54.4525 17.815 52.9608 18.5372 51.114 18.8213V18.2531C52.6767 18.5372 53.896 19.1765 54.7721 20.1709C55.6482 21.1654 56.0862 22.3966 56.0862 23.8646C56.0862 26.3034 55.2812 28.162 53.6711 29.4406C52.0611 30.6955 49.8354 31.323 46.9941 31.323H37.7599ZM40.0329 27.8779H46.781C48.4147 27.8779 49.6341 27.5109 50.4391 26.7769C51.2679 26.0429 51.6822 24.9893 51.6822 23.616C51.6822 22.5268 51.3152 21.71 50.5812 21.1654C49.8709 20.6208 48.8291 20.3485 47.4558 20.3485H41.2405L40.0329 27.8779ZM41.8087 16.9034H47.882C49.4684 16.9034 50.6996 16.5483 51.5757 15.838C52.4517 15.1276 52.8898 14.0977 52.8898 12.7481C52.8898 11.7773 52.5464 11.0314 51.8598 10.5105C51.1968 9.98964 50.1432 9.72919 48.6989 9.72919H42.9453L41.8087 16.9034Z" fill="#002855"/>
<path d="M62.6381 38C62.0698 38 61.6318 37.8698 61.324 37.6093C61.0162 37.3489 60.8505 37.0056 60.8268 36.5794C60.8031 36.1768 60.9333 35.7388 61.2175 35.2653L64.5915 29.7248L64.3074 31.5716L60.223 16.7259C60.0573 16.1339 60.0336 15.613 60.152 15.1632C60.2704 14.6896 60.5071 14.3226 60.8623 14.0622C61.2411 13.8017 61.7028 13.6715 62.2474 13.6715C62.863 13.6715 63.3247 13.8254 63.6325 14.1332C63.964 14.4173 64.2126 14.9382 64.3784 15.6959L67.2197 27.4517H66.1187L73.0798 15.2697C73.4113 14.7014 73.7546 14.2989 74.1098 14.0622C74.465 13.8017 74.9267 13.6715 75.4949 13.6715C76.0632 13.6715 76.5012 13.8017 76.809 14.0622C77.1405 14.3226 77.3181 14.6659 77.3418 15.0921C77.3891 15.4946 77.2707 15.9445 76.9866 16.4417L65.0532 36.4018C64.7217 36.97 64.3784 37.3726 64.0232 37.6093C63.6681 37.8698 63.2064 38 62.6381 38Z" fill="#002855"/>
<path d="M83.9253 31.6781C81.9601 31.6781 80.5394 31.1217 79.6633 30.0089C78.7873 28.8724 78.515 27.2268 78.8465 25.0721L81.5457 8.202C81.6641 7.468 81.9364 6.92342 82.3626 6.56826C82.7888 6.18942 83.3689 6 84.1029 6C84.7895 6 85.2867 6.22494 85.5945 6.67481C85.926 7.12468 86.0326 7.76397 85.9142 8.59268L83.286 25.0366C83.1202 26.0784 83.2031 26.8479 83.5346 27.3452C83.8898 27.8187 84.458 28.0555 85.2394 28.0555C85.4998 28.0555 85.7129 28.0437 85.8787 28.02C86.0444 27.9726 86.1983 27.9489 86.3404 27.9489C86.5771 27.9489 86.7666 28.0318 86.9086 28.1976C87.0507 28.3633 87.1217 28.6829 87.1217 29.1565C87.1217 29.8431 86.9797 30.3759 86.6955 30.7547C86.4114 31.1099 86.0681 31.3467 85.6656 31.465C85.4525 31.5361 85.1802 31.5834 84.8487 31.6071C84.5172 31.6545 84.2094 31.6781 83.9253 31.6781Z" fill="#002855"/>
<path d="M90.7208 31.323C90.2236 31.323 89.821 31.2283 89.5132 31.0388C89.2054 30.8258 88.9923 30.5535 88.8739 30.222C88.7556 29.8905 88.7437 29.5353 88.8384 29.1565C88.9568 28.754 89.1936 28.3633 89.5487 27.9845L100.523 16.2286L100.665 17.2941H92.6031C92.0349 17.2941 91.5968 17.1757 91.289 16.939C90.9812 16.6785 90.8273 16.3352 90.8273 15.909C90.8273 15.2934 91.0049 14.8198 91.3601 14.4883C91.7389 14.1332 92.2243 13.9556 92.8162 13.9556H103.08C103.578 13.9556 103.98 14.0622 104.288 14.2753C104.619 14.4647 104.833 14.7251 104.927 15.0566C105.046 15.3881 105.034 15.7669 104.892 16.1931C104.773 16.5956 104.525 16.9982 104.146 17.4007L93.1359 29.1565L92.9938 27.9845H101.589C102.773 27.9845 103.365 28.4462 103.365 29.3696C103.365 29.9615 103.187 30.4351 102.832 30.7902C102.477 31.1454 101.991 31.323 101.376 31.323H90.7208Z" fill="#002855"/>
</svg>
