<svg width="20" height="20" viewBox="0 0 20 20" fill="none" xmlns="http://www.w3.org/2000/svg">
<path d="M14.6872 3.74986C14.3628 3.7494 14.0425 3.82175 13.7497 3.96158V3.43736C13.7499 2.91599 13.5639 2.4117 13.2252 2.01535C12.8865 1.619 12.4173 1.35667 11.9023 1.27562C11.3873 1.19457 10.8602 1.30014 10.4161 1.5733C9.97205 1.84646 9.64014 2.26925 9.4802 2.76548C9.14708 2.5848 8.77273 2.49375 8.39383 2.50127C8.01493 2.50879 7.64449 2.61461 7.3188 2.80837C6.99311 3.00214 6.72334 3.27719 6.53593 3.60657C6.34852 3.93596 6.2499 4.30839 6.24973 4.68736V9.68736L5.95129 9.20845C5.66142 8.70821 5.1853 8.34307 4.627 8.19284C4.0687 8.04261 3.47363 8.11952 2.97186 8.40674C2.4701 8.69397 2.10245 9.16815 1.94927 9.72565C1.79609 10.2831 1.86985 10.8786 2.15442 11.3819C3.40442 14.0202 4.41457 15.8913 5.57004 17.0608C6.73723 18.2452 8.06223 18.7499 9.99973 18.7499C11.8225 18.7478 13.5699 18.0228 14.8588 16.7339C16.1477 15.4451 16.8727 13.6976 16.8747 11.8749V5.93736C16.8747 5.3572 16.6443 4.8008 16.234 4.39056C15.8238 3.98033 15.2674 3.74986 14.6872 3.74986ZM15.6247 11.8749C15.6231 13.3662 15.0299 14.796 13.9754 15.8505C12.9208 16.905 11.4911 17.4982 9.99973 17.4999C8.40754 17.4999 7.38176 17.1186 6.45832 16.1835C5.42473 15.1358 4.47317 13.3592 3.27317 10.8264C3.26614 10.8109 3.25831 10.7958 3.24973 10.7811C3.12541 10.5657 3.09174 10.3098 3.15614 10.0696C3.22053 9.82936 3.3777 9.62457 3.59309 9.50025C3.80847 9.37593 4.06442 9.34226 4.30463 9.40665C4.54484 9.47105 4.74963 9.62822 4.87395 9.84361C4.87713 9.84987 4.88079 9.85588 4.88489 9.86158L6.34348 12.2053C6.41513 12.3209 6.52255 12.41 6.64942 12.4591C6.77629 12.5081 6.9157 12.5144 7.04649 12.477C7.17727 12.4396 7.29229 12.3606 7.37409 12.2519C7.45589 12.1433 7.5 12.0109 7.49973 11.8749V4.68736C7.49973 4.43872 7.5985 4.20026 7.77432 4.02445C7.95013 3.84863 8.18859 3.74986 8.43723 3.74986C8.68587 3.74986 8.92433 3.84863 9.10014 4.02445C9.27596 4.20026 9.37473 4.43872 9.37473 4.68736V9.37486C9.37473 9.54062 9.44058 9.69959 9.55779 9.8168C9.675 9.93401 9.83397 9.99986 9.99973 9.99986C10.1655 9.99986 10.3245 9.93401 10.4417 9.8168C10.5589 9.69959 10.6247 9.54062 10.6247 9.37486V3.43736C10.6247 3.18872 10.7235 2.95026 10.8993 2.77445C11.0751 2.59863 11.3136 2.49986 11.5622 2.49986C11.8109 2.49986 12.0493 2.59863 12.2251 2.77445C12.401 2.95026 12.4997 3.18872 12.4997 3.43736V9.37486C12.4997 9.54062 12.5656 9.69959 12.6828 9.8168C12.8 9.93401 12.959 9.99986 13.1247 9.99986C13.2905 9.99986 13.4495 9.93401 13.5667 9.8168C13.6839 9.69959 13.7497 9.54062 13.7497 9.37486V5.93736C13.7497 5.68872 13.8485 5.45026 14.0243 5.27445C14.2001 5.09863 14.4386 4.99986 14.6872 4.99986C14.9359 4.99986 15.1743 5.09863 15.3501 5.27445C15.526 5.45026 15.6247 5.68872 15.6247 5.93736V11.8749Z" fill="#010E26"/>
</svg>
